<svg width="257" height="272" viewBox="0 0 257 272" fill="none" xmlns="http://www.w3.org/2000/svg">
<mask id="mask0_6871:29690" style="mask-type:alpha" maskUnits="userSpaceOnUse" x="0" y="0" width="257" height="272">
<rect width="257" height="272" fill="#C4C4C4"/>
</mask>
<g mask="url(#mask0_6871:29690)">
<path d="M70.6409 54.7409V62.0264H80.8437V54.7409H70.6409Z" fill="#2D1900"/>
<path d="M52.8768 58.3916C52.8768 62.3989 54.0209 66.7905 55.9691 71.2161C56.3266 72.0276 57.113 72.5566 58.0067 72.5566H66.4253C67.319 72.5566 68.1054 72.0276 68.4628 71.2161C70.3932 66.7905 71.5372 62.3989 71.5372 58.3916C71.5372 54.3861 70.3932 49.9927 68.4628 45.5672C68.1054 44.7557 67.319 44.2284 66.4253 44.2284H58.0067C57.113 44.2284 56.3266 44.7557 55.9691 45.5672C54.0209 49.9927 52.8768 54.3861 52.8768 58.3916Z" fill="#413C46"/>
<path d="M72.6302 105.09V112.373H82.8219V105.09H72.6302Z" fill="#2D1900"/>
<path d="M54.8751 108.73C54.8751 112.737 56.0199 117.13 57.9516 121.555C58.3093 122.365 59.114 122.895 59.9905 122.895H68.4149C69.3092 122.895 70.114 122.365 70.4538 121.555C72.3855 117.13 73.5302 112.737 73.5302 108.73C73.5302 104.724 72.3855 100.331 70.4538 95.9062C70.114 95.0941 69.3092 94.5666 68.4149 94.5666H59.9905C59.114 94.5666 58.3093 95.0941 57.9516 95.9062C56.0199 100.331 54.8751 104.724 54.8751 108.73Z" fill="#413C46"/>
<path d="M74.6471 155.436V162.721H84.8458V155.436H74.6471Z" fill="#2D1900"/>
<path d="M56.9041 159.074C56.9041 163.08 58.0317 167.474 59.9826 171.898C60.3406 172.709 61.1282 173.237 62.0231 173.237H70.4532C71.3303 173.237 72.1358 172.709 72.4937 171.898C74.4268 167.474 75.5543 163.08 75.5543 159.074C75.5543 155.067 74.4268 150.673 72.4937 146.248C72.1358 145.437 71.3303 144.909 70.4532 144.909H62.0231C61.1282 144.909 60.3406 145.437 59.9826 146.248C58.0317 150.673 56.9041 155.067 56.9041 159.074Z" fill="#413C46"/>
<path d="M186.775 54.7475V62.0312H176.574V54.7475H186.775Z" fill="#2D1900"/>
<path d="M204.515 58.3898C204.515 62.3969 203.393 66.7889 201.45 71.2147C201.095 72.0258 200.291 72.5547 199.413 72.5547H190.984C190.086 72.5547 189.302 72.0258 188.946 71.2147C187.003 66.7889 185.863 62.3969 185.863 58.3898C185.863 54.3846 187.003 49.9907 188.946 45.565C189.302 44.7538 190.086 44.2267 190.984 44.2267H199.413C200.291 44.2267 201.095 44.7538 201.45 45.565C203.393 49.9907 204.515 54.3846 204.515 58.3898Z" fill="#413C46"/>
<path d="M184.798 105.088V112.373H174.603V105.088H184.798Z" fill="#2D1900"/>
<path d="M202.537 108.731C202.537 112.737 201.417 117.132 199.474 121.556C199.119 122.367 198.316 122.896 197.438 122.896H188.996C188.118 122.896 187.315 122.367 186.96 121.556C185.018 117.13 183.897 112.737 183.897 108.731C183.897 104.724 185.018 100.331 186.96 95.9065C187.315 95.094 188.118 94.5673 188.996 94.5673H197.438C198.316 94.5673 199.119 95.094 199.474 95.9065C201.417 100.331 202.537 104.724 202.537 108.731Z" fill="#413C46"/>
<path d="M182.758 155.436V162.72H172.552V155.436H182.758Z" fill="#2D1900"/>
<path d="M200.513 159.077C200.513 163.083 199.375 167.476 197.434 171.9C197.098 172.712 196.295 173.24 195.399 173.24H186.981C186.085 173.24 185.301 172.712 184.928 171.9C183.005 167.476 181.867 163.083 181.867 159.077C181.867 155.07 183.005 150.676 184.928 146.252C185.301 145.44 186.085 144.912 186.981 144.912H195.399C196.295 144.912 197.098 145.44 197.434 146.252C199.375 150.676 200.513 155.07 200.513 159.077Z" fill="#413C46"/>
<path d="M98.4743 209.049C98.4743 213.258 98.4743 213.745 98.4743 213.745L91.9325 820.149H165.487L158.926 213.745C158.926 213.745 158.926 213.258 158.926 209.049C158.926 204.84 171.954 182.259 172.788 163.237C173.585 144.218 178.385 23.744 178.589 14.9987C178.848 3.85529 170.676 1.26068 162.336 4.01276C153.997 6.76288 141.988 9.04974 128.7 9.04974C115.431 9.04974 103.404 6.76288 95.0829 4.01276C86.7435 1.26068 78.5707 3.85529 78.8302 14.9987C79.034 23.744 83.8338 144.218 84.6307 163.237C85.4461 182.259 98.4743 204.84 98.4743 209.049Z" fill="#341605"/>
<path d="M158.932 209.052H98.4733V213.747H158.932V209.052Z" fill="#E6DCC8"/>
<path d="M158.695 260.159H98.7228C98.3177 260.159 97.9863 260.491 97.9679 260.903V262.152C97.9679 262.57 98.2809 262.912 98.7044 262.912H158.713C159.137 262.912 159.468 262.57 159.468 262.152L159.45 260.903C159.45 260.491 159.118 260.159 158.695 260.159Z" fill="#CDD2D7"/>
<path d="M103.983 496.842H102.209L102.571 465.471H104.308L103.983 496.842ZM104.344 462.718H102.589L102.987 429.376H104.706L104.344 462.718ZM104.724 426.622H103.005L103.404 391.196H105.104L104.724 426.622ZM105.14 388.444H103.44L103.856 350.812H105.52L105.14 388.444ZM105.556 348.059H103.892L104.344 308.097H105.973L105.556 348.059ZM106.009 305.344H104.38L104.851 262.914H106.461L106.009 305.344ZM106.479 260.161H104.905L105.43 213.744H106.986L106.479 260.161Z" fill="#321703"/>
<path d="M106.459 262.91H104.867L104.903 260.157H106.495L106.459 262.91Z" fill="#9D9A96"/>
<path d="M124.493 496.844H124.201L124.274 465.472H124.565L124.493 496.844ZM124.565 462.718H124.292L124.365 429.375H124.638L124.565 462.718ZM124.638 426.623H124.365L124.438 391.195H124.711L124.675 406.18C124.656 406.371 124.638 406.567 124.638 406.766C124.638 406.959 124.656 407.15 124.675 407.335L124.638 426.623ZM124.711 388.445H124.456L124.547 350.813H124.802L124.711 388.445ZM124.802 348.059H124.547L124.638 308.098H124.893L124.802 348.059ZM124.893 305.344H124.638L124.729 262.914H124.984L124.893 305.344ZM124.984 260.16H124.747L124.857 213.744H125.093L124.984 260.16Z" fill="#321703"/>
<path d="M124.986 262.917H124.731L124.749 260.163H124.986V262.917Z" fill="#9D9A96"/>
<path d="M114.312 496.84H113.278L113.495 465.469H114.512L114.312 496.84ZM114.53 462.714H113.513L113.731 429.372H114.729L114.53 462.714ZM114.747 426.619H113.749L114.003 391.192H114.983L114.747 426.619ZM115.002 388.441H114.022L114.276 350.809H115.237L115.002 388.441ZM115.256 348.056H114.294L114.566 308.094H115.51L115.256 348.056ZM115.528 305.341H114.584L114.875 262.909H115.8L115.528 305.341ZM115.818 260.156H114.893L115.219 213.741H116.108L115.818 260.156Z" fill="#321703"/>
<path d="M115.799 262.91H114.874L114.892 260.158H115.817L115.799 262.91Z" fill="#9D9A96"/>
<path d="M133.357 496.842H133.029L132.956 465.47H133.284L133.357 496.842ZM133.284 462.716H132.956L132.883 429.373H133.211L133.284 462.716ZM133.193 426.62H132.883L132.81 391.195H133.12L133.193 426.62ZM133.12 388.442H132.791L132.718 350.81H133.01L133.12 388.442ZM133.01 348.057H132.7L132.627 308.096H132.919L133.01 348.057ZM132.919 305.341H132.609L132.536 262.912H132.828L132.919 305.341ZM132.81 260.158H132.518L132.426 213.742H132.7L132.81 260.158Z" fill="#321703"/>
<path d="M132.821 262.911H132.529V260.159H132.803L132.821 262.911Z" fill="#9D9A96"/>
<path d="M155.099 496.84H153.94L153.609 465.469H154.768L155.099 496.84ZM154.731 462.715H153.573L153.223 429.373H154.382L154.731 462.715ZM154.345 426.618H153.186L152.819 391.193H153.977L154.345 426.618ZM153.94 388.442H152.782L152.378 350.809H153.536L153.94 388.442ZM153.518 348.057H152.359L151.936 308.094H153.094L153.518 348.057ZM153.058 305.341H151.899L151.44 262.911H152.598L153.058 305.341ZM152.561 260.156H151.421L150.925 213.741H152.083L152.561 260.156Z" fill="#321703"/>
<path d="M152.584 262.917H151.445L151.409 260.163H152.548L152.584 262.917Z" fill="#9D9A96"/>
<path d="M144.565 496.842H143.466L143.283 465.471H144.345L144.565 496.842ZM144.327 462.717H143.264L143.044 429.375H144.107L144.327 462.717ZM144.089 426.622H143.026L142.788 391.194H143.832L144.089 426.622ZM143.814 388.444H142.77L142.55 350.811H143.576L143.814 388.444ZM143.557 348.057H142.532L142.275 308.096H143.283L143.557 348.057ZM143.264 305.344H142.257L141.982 262.912H142.971L143.264 305.344ZM142.953 260.158H141.963L141.67 213.744H142.623L142.953 260.158Z" fill="#321703"/>
<path d="M142.971 262.912H141.982L141.964 260.158H142.953L142.971 262.912Z" fill="#9D9A96"/>
<path d="M103.109 211.364L93.3082 1074.35V1084.58H95.6589V1074.36L105.441 211.586L105.496 152.884L105.514 152.747L103.163 152.743L103.109 211.364Z" fill="#B99B82"/>
<path d="M153.753 211.435L153.698 152.921V152.646H153.421L152.721 152.648H152.462V152.923L152.536 211.441L162.327 1067.37V1084.45V1084.72H162.585H163.286H163.562V1084.45V1067.36L153.753 211.435Z" fill="#B99B82"/>
<path d="M103.445 103.407L103.409 103.134L103.137 103.163L101.358 103.357L101.086 103.386L101.123 103.66L112.752 210.341C112.842 211.101 112.879 211.87 112.879 212.632L107.001 1072.95V1084.45V1084.72H107.273H109.069H109.341V1084.45V1072.95L115.219 212.648C115.219 211.798 115.183 210.934 115.092 210.089L103.445 103.407Z" fill="#B99B82"/>
<path d="M101.442 53.0264L101.387 52.7534L101.114 52.7933L99.6215 53.0154L99.3485 53.0555L99.4031 53.3286L122.555 210.02C122.718 211.019 122.791 212.038 122.791 213.049L120.826 1071.55V1084.45V1084.72H121.099H122.627H122.9V1084.45V1071.55L124.848 213.052C124.848 211.94 124.775 210.821 124.611 209.72L101.442 53.0264Z" fill="#B99B82"/>
<path d="M144.295 209.878L155.752 103.66L155.789 103.386L155.513 103.357L154.575 103.254L154.281 103.225L154.262 103.5L142.805 209.714C142.676 210.843 142.621 211.993 142.621 213.129L148.488 1068.76V1084.45V1084.72H148.763H149.738H149.996V1084.45V1068.76L144.129 213.118C144.129 212.039 144.184 210.948 144.295 209.878Z" fill="#B99B82"/>
<path d="M134.717 209.94L158.036 53.3284L158.073 53.0562L157.797 53.0155L156.582 52.8334L156.306 52.7928L156.269 53.0653L132.951 209.675C132.785 210.812 132.711 211.972 132.711 213.122L134.662 1070.16V1084.45V1084.72H134.938H136.171H136.448V1084.45V1070.15L134.497 213.118C134.497 212.058 134.57 210.987 134.717 209.94Z" fill="#B99B82"/>
<path d="M102.415 121.254C98.5949 121.254 95.4988 116.831 95.4988 103.635H101.094L101.112 103.664L103.013 121.214C102.813 121.241 102.614 121.254 102.415 121.254ZM105.276 120.229L103.465 103.635H106.833L108.372 114.124C107.666 117.225 106.561 119.17 105.276 120.229ZM109.295 106.208L108.915 103.635H109.332C109.332 104.533 109.313 105.391 109.295 106.208Z" fill="#271203"/>
<path d="M103.026 121.213L101.11 103.664V103.635H103.46L105.268 120.229C104.563 120.795 103.822 121.11 103.026 121.213Z" fill="#77624E"/>
<path d="M108.378 114.121L106.839 103.633H108.921L109.301 106.205C109.192 109.423 108.867 112.034 108.378 114.121Z" fill="#77624E"/>
<path d="M105.483 171.459L105.501 153.979H106.587L108.289 169.423C107.456 170.55 106.515 171.198 105.483 171.459ZM103.148 171.435C99.8906 170.534 97.4291 165.741 97.4291 153.979H103.167L103.148 171.435Z" fill="#271203"/>
<path d="M104.359 171.594C103.943 171.594 103.546 171.543 103.148 171.433L103.166 153.976H105.498L105.48 171.456C105.119 171.55 104.739 171.594 104.359 171.594Z" fill="#77624E"/>
<path d="M110.174 165.09L108.96 153.98H111.279C111.279 158.769 110.862 162.405 110.174 165.09Z" fill="#271203"/>
<path d="M108.291 169.418L106.607 153.975H108.961L110.175 165.086C109.668 166.975 109.034 168.395 108.291 169.418Z" fill="#77624E"/>
<path d="M152.479 171.557C151.061 171.382 149.772 170.546 148.74 168.816L150.324 153.976H152.442L152.479 171.557ZM153.713 171.547L153.694 153.976H159.974C159.974 166.407 157.23 171.054 153.713 171.547Z" fill="#271203"/>
<path d="M153.06 171.596C152.858 171.596 152.656 171.585 152.472 171.561L152.435 153.979H153.685L153.703 171.552C153.483 171.581 153.262 171.596 153.06 171.596Z" fill="#77624E"/>
<path d="M147.51 166.004C146.647 163.246 146.134 159.333 146.134 153.973H148.812L147.51 166.004Z" fill="#271203"/>
<path d="M148.733 168.817C148.274 168.059 147.87 167.129 147.503 166.007L148.806 153.977H150.33L148.733 168.817Z" fill="#77624E"/>
<path d="M100.47 70.9062C96.6518 70.9062 93.5577 66.4859 93.5577 53.2883H99.3839L99.402 53.3298L101.953 70.6619C101.483 70.8283 100.976 70.9062 100.47 70.9062ZM103.853 69.3971L101.483 53.2883H107.399C107.399 62.2519 105.97 67.1661 103.853 69.3971Z" fill="#271203"/>
<path d="M101.96 70.6602L99.394 53.3272V53.2855H101.472L103.858 69.3951C103.28 70.0132 102.629 70.4252 101.96 70.6602Z" fill="#77624E"/>
<path d="M156.939 70.9072C156.422 70.9072 155.924 70.8281 155.445 70.6621L158.027 53.3302V53.2915H163.854C163.854 66.4872 160.756 70.9072 156.939 70.9072ZM153.804 69.6312C151.554 67.5179 150.023 62.5779 150.023 53.2915H156.219L153.804 69.6312Z" fill="#271203"/>
<path d="M155.466 70.6553C154.877 70.4491 154.325 70.1124 153.81 69.6247L156.239 53.2833H158.043V53.3237L155.466 70.6553Z" fill="#77624E"/>
<path d="M154.993 121.248C154.624 121.248 154.237 121.204 153.887 121.112L155.767 103.66V103.63H161.922C161.922 116.825 158.826 121.248 154.993 121.248ZM152.431 120.441C150.975 119.423 149.777 117.389 149.003 113.983L150.551 103.63H154.237L152.431 120.441ZM148.174 107.41C148.119 106.24 148.082 104.979 148.082 103.63H148.745L148.174 107.41Z" fill="#271203"/>
<path d="M153.879 121.112C153.383 120.984 152.886 120.763 152.426 120.439L154.247 103.63H155.773L155.755 103.66L153.879 121.112Z" fill="#77624E"/>
<path d="M149.003 113.986C148.599 112.193 148.305 110.019 148.177 107.414L148.746 103.634H150.545L149.003 113.986Z" fill="#77624E"/>
<path d="M104.358 147.059C100.535 147.059 97.4367 150.158 97.4367 153.98C97.4367 157.801 100.535 160.899 104.358 160.899C108.181 160.899 111.279 157.801 111.279 153.98C111.279 150.158 108.181 147.059 104.358 147.059Z" fill="#C7CDD9"/>
<path d="M102.415 110.558C106.235 110.558 109.332 107.458 109.332 103.636C109.332 99.8136 106.235 96.7158 102.415 96.7158C98.5949 96.7158 95.4988 99.8136 95.4988 103.636C95.4988 107.458 98.5949 110.558 102.415 110.558Z" fill="#C7CDD9"/>
<path d="M100.47 60.209C104.287 60.209 107.399 57.1113 107.399 53.2881C107.399 49.4667 104.287 46.369 100.47 46.369C96.6518 46.369 93.5577 49.4667 93.5577 53.2881C93.5577 57.1113 96.6518 60.209 100.47 60.209Z" fill="#C7CDD9"/>
<path d="M153.068 147.055C149.238 147.055 146.144 150.152 146.144 153.975C146.144 157.797 149.238 160.895 153.068 160.895C156.88 160.895 159.974 157.797 159.974 153.975C159.974 150.152 156.88 147.055 153.068 147.055Z" fill="#C7CDD9"/>
<path d="M154.993 96.7094C151.178 96.7094 148.082 99.8071 148.082 103.631C148.082 107.453 151.178 110.551 154.993 110.551C158.826 110.551 161.922 107.453 161.922 103.631C161.922 99.8071 158.826 96.7094 154.993 96.7094Z" fill="#C7CDD9"/>
<path d="M156.939 60.209C160.756 60.209 163.854 57.1111 163.854 53.2903C163.854 49.4658 160.756 46.3697 156.939 46.3697C153.103 46.3697 150.023 49.4658 150.023 53.2903C150.023 57.1111 153.103 60.209 156.939 60.209Z" fill="#C7CDD9"/>
</g>
</svg>
